<svg xmlns="http://www.w3.org/2000/svg" role="img" aria-labelledby="title themesDescription" width="128" height="128" viewBox="0 0 128 128">
  <title id="title">Themes Icon</title>
  <desc id="themesDescription">Three layered cards on a circular backdrop suggesting customizable themes.</desc>
  <defs>
    <linearGradient id="cardPrimary" x1="0%" y1="0%" x2="100%" y2="100%">
      <stop offset="0%" stop-color="#6366f1"/>
      <stop offset="100%" stop-color="#a855f7"/>
    </linearGradient>
    <linearGradient id="cardSecondary" x1="0%" y1="0%" x2="100%" y2="100%">
      <stop offset="0%" stop-color="#38bdf8"/>
      <stop offset="100%" stop-color="#22d3ee"/>
    </linearGradient>
    <linearGradient id="cardTertiary" x1="0%" y1="0%" x2="100%" y2="100%">
      <stop offset="0%" stop-color="#f97316"/>
      <stop offset="100%" stop-color="#facc15"/>
    </linearGradient>
    <linearGradient id="accent" x1="30%" y1="15%" x2="80%" y2="95%">
      <stop offset="0%" stop-color="#fff7ed" stop-opacity="0.8"/>
      <stop offset="55%" stop-color="#f5f3ff" stop-opacity="0.3"/>
      <stop offset="100%" stop-color="#e0f2fe" stop-opacity="0"/>
    </linearGradient>
  </defs>
  <g transform="translate(10 16)">
    <rect x="70" y="6" width="56" height="92" rx="12" fill="url(#cardTertiary)" opacity="0.8" transform="rotate(18 98 52)"/>
    <rect x="32" y="0" width="62" height="96" rx="12" fill="url(#cardSecondary)" opacity="0.88" transform="rotate(-10 63 48)"/>
    <rect x="0" y="10" width="70" height="100" rx="13" fill="url(#cardPrimary)"/>
    <path d="M12 40h46c3.3 0 6 2.7 6 6v4c0 3.3-2.7 6-6 6H12c-3.3 0-6-2.7-6-6v-4c0-3.3 2.7-6 6-6z" fill="url(#accent)" opacity="0.6"/>
    <circle cx="20" cy="30" r="6" fill="#f8fafc" opacity="0.95"/>
    <rect x="38" y="28" width="26" height="8" rx="4" fill="#f8fafc" opacity="0.9"/>
    <rect x="18" y="52" width="36" height="6" rx="3" fill="#ede9fe"/>
    <rect x="18" y="66" width="32" height="6" rx="3" fill="#ede9fe"/>
    <rect x="18" y="80" width="40" height="6" rx="3" fill="#ede9fe" opacity="0.8"/>
  </g>
</svg>
